HIERARCHY
ROOT hips
{
  OFFSET 0 10.680822821525009 1.3929502295107734
  CHANNELS 6 Xposition Yposition Zposition Yrotation Xrotation Zrotation
  JOINT spine
  {
    OFFSET -7.042017322922631e-31 0.6058489940359625 0
    CHANNELS 3 Yrotation Xrotation Zrotation
    JOINT chest
    {
      OFFSET 0 1.2699794144455032 0
      CHANNELS 3 Yrotation Xrotation Zrotation
      JOINT upperChest
      {
        OFFSET 0 1.217799211677689 0
        CHANNELS 3 Yrotation Xrotation Zrotation
        JOINT neck
        {
          OFFSET 0 1.5248826104153006 0
          CHANNELS 3 Yrotation Xrotation Zrotation
          JOINT head
          {
            OFFSET 0 0.8197772727844447 0
            CHANNELS 3 Yrotation Xrotation Zrotation
            JOINT leftEye
            {
              OFFSET 0.2793952361220866 0.6769952096623495 0.1830357412467788
              CHANNELS 3 Yrotation Xrotation Zrotation
              End Site
              {
                OFFSET 0.2793952361220866 0.6769952096623495 0.1830357412467788
              }
            }
            JOINT rightEye
            {
              OFFSET -0.27939522230689573 0.676995205357064 0.18303631459760622
              CHANNELS 3 Yrotation Xrotation Zrotation
              End Site
              {
                OFFSET -0.27939522230689573 0.676995205357064 0.18303631459760622
              }
            }
          }
        }
        JOINT leftShoulder
        {
          OFFSET 0.41486978509200423 1.1670505408695453 0
          CHANNELS 3 Yrotation Xrotation Zrotation
          JOINT leftUpperArm
          {
            OFFSET 0.9737926108153417 0 0
            CHANNELS 3 Yrotation Xrotation Zrotation
            JOINT leftLowerArm
            {
              OFFSET 2.5269332222665284 0 0
              CHANNELS 3 Yrotation Xrotation Zrotation
              JOINT leftHand
              {
                OFFSET 2.4263782738425914 0 0
                CHANNELS 3 Yrotation Xrotation Zrotation
                JOINT leftIndexProximal
                {
                  OFFSET 0.724320348022514 0.08170607082582437 0.20360061616140124
                  CHANNELS 3 Yrotation Xrotation Zrotation
                  JOINT leftIndexIntermediate
                  {
                    OFFSET 0.36548960630744587 -0.010566596513783999 -0.01414783573280308
                    CHANNELS 3 Yrotation Xrotation Zrotation
                    JOINT leftIndexDistal
                    {
                      OFFSET 0.22502819650693362 -0.007863819831430696 -0.007567681939621526
                      CHANNELS 3 Yrotation Xrotation Zrotation
                      End Site
                      {
                        OFFSET 0.22502819650693362 -0.007863819831430696 -0.007567681939621526
                      }
                    }
                  }
                }
                JOINT leftLittleProximal
                {
                  OFFSET 0.6720322998298205 0.08170601055037707 -0.3230036039466837
                  CHANNELS 3 Yrotation Xrotation Zrotation
                  JOINT leftLittleIntermediate
                  {
                    OFFSET 0.34583592281688713 5.476543019078406e-8 1.3869203337180114e-7
                    CHANNELS 3 Yrotation Xrotation Zrotation
                    JOINT leftLittleDistal
                    {
                      OFFSET 0.19925728062053938 0.003098047439490381 0.0038303983709246925
                      CHANNELS 3 Yrotation Xrotation Zrotation
                      End Site
                      {
                        OFFSET 0.19925728062053938 0.003098047439490381 0.0038303983709246925
                      }
                    }
                  }
                }
                JOINT leftMiddleProximal
                {
                  OFFSET 0.7300436596551069 0.0817073395107144 0.022661722987926763
                  CHANNELS 3 Yrotation Xrotation Zrotation
                  JOINT leftMiddleIntermediate
                  {
                    OFFSET 0.40758254347686607 -0.0000012383587111308714 2.408460318820138e-7
                    CHANNELS 3 Yrotation Xrotation Zrotation
                    JOINT leftMiddleDistal
                    {
                      OFFSET 0.2514490105498507 0.0000013869132886590307 9.738618134136345e-8
                      CHANNELS 3 Yrotation Xrotation Zrotation
                      End Site
                      {
                        OFFSET 0.2514490105498507 0.0000013869132886590307 9.738618134136345e-8
                      }
                    }
                  }
                }
                JOINT leftRingProximal
                {
                  OFFSET 0.7217261161191838 0.08170601902187746 -0.15043395722184966
                  CHANNELS 3 Yrotation Xrotation Zrotation
                  JOINT leftRingIntermediate
                  {
                    OFFSET 0.37808807487521556 0.0000013754022405443322 2.2046919317952884e-7
                    CHANNELS 3 Yrotation Xrotation Zrotation
                    JOINT leftRingDistal
                    {
                      OFFSET 0.21812105442344254 -0.002713483731960231 -0.004991354517454624
                      CHANNELS 3 Yrotation Xrotation Zrotation
                      End Site
                      {
                        OFFSET 0.21812105442344254 -0.002713483731960231 -0.004991354517454624
                      }
                    }
                  }
                }
                JOINT leftThumbProximal
                {
                  OFFSET 0.10793587079521427 -0.1652791240518252 -0.07775251827190094
                  CHANNELS 3 Yrotation Xrotation Zrotation
                  JOINT leftThumbIntermediate
                  {
                    OFFSET 0.40355819082296684 -0.017484006740276614 0.3177776014416309
                    CHANNELS 3 Yrotation Xrotation Zrotation
                    JOINT leftThumbDistal
                    {
                      OFFSET 0.2318764658022603 -0.018510186824293617 0.21396001800186287
                      CHANNELS 3 Yrotation Xrotation Zrotation
                      End Site
                      {
                        OFFSET 0.2318764658022603 -0.018510186824293617 0.21396001800186287
                      }
                    }
                  }
                }
              }
            }
          }
        }
        JOINT rightShoulder
        {
          OFFSET -0.4148697850920044 1.1670505408695453 0
          CHANNELS 3 Yrotation Xrotation Zrotation
          JOINT rightUpperArm
          {
            OFFSET -0.9737926108153414 0 0
            CHANNELS 3 Yrotation Xrotation Zrotation
            JOINT rightLowerArm
            {
              OFFSET -2.5269332222665293 0 0
              CHANNELS 3 Yrotation Xrotation Zrotation
              JOINT rightHand
              {
                OFFSET -2.42637827384259 0 0
                CHANNELS 3 Yrotation Xrotation Zrotation
                JOINT rightIndexProximal
                {
                  OFFSET -0.724320348022514 0.08170607082582437 0.20360061616140124
                  CHANNELS 3 Yrotation Xrotation Zrotation
                  JOINT rightIndexIntermediate
                  {
                    OFFSET -0.36548960630744587 -0.010566596513783999 -0.01414783573280308
                    CHANNELS 3 Yrotation Xrotation Zrotation
                    JOINT rightIndexDistal
                    {
                      OFFSET -0.22502819650693362 -0.007863819831430696 -0.007567681939621526
                      CHANNELS 3 Yrotation Xrotation Zrotation
                      End Site
                      {
                        OFFSET -0.22502819650693362 -0.007863819831430696 -0.007567681939621526
                      }
                    }
                  }
                }
                JOINT rightLittleProximal
                {
                  OFFSET -0.6720322998298205 0.08170601055037707 -0.3230036039466837
                  CHANNELS 3 Yrotation Xrotation Zrotation
                  JOINT rightLittleIntermediate
                  {
                    OFFSET -0.34583592281688713 5.476543019078406e-8 1.3869203337180114e-7
                    CHANNELS 3 Yrotation Xrotation Zrotation
                    JOINT rightLittleDistal
                    {
                      OFFSET -0.19925728062053938 0.003098047439490381 0.0038303983709246925
                      CHANNELS 3 Yrotation Xrotation Zrotation
                      End Site
                      {
                        OFFSET -0.19925728062053938 0.003098047439490381 0.0038303983709246925
                      }
                    }
                  }
                }
                JOINT rightMiddleProximal
                {
                  OFFSET -0.7300436596551069 0.0817073395107144 0.022661722987926763
                  CHANNELS 3 Yrotation Xrotation Zrotation
                  JOINT rightMiddleIntermediate
                  {
                    OFFSET -0.40758254347686607 -0.0000012383587111308714 2.408460318820138e-7
                    CHANNELS 3 Yrotation Xrotation Zrotation
                    JOINT rightMiddleDistal
                    {
                      OFFSET -0.2514490105498507 0.0000013869132886590307 9.738618134136345e-8
                      CHANNELS 3 Yrotation Xrotation Zrotation
                      End Site
                      {
                        OFFSET -0.2514490105498507 0.0000013869132886590307 9.738618134136345e-8
                      }
                    }
                  }
                }
                JOINT rightRingProximal
                {
                  OFFSET -0.7217261161191838 0.08170601902187746 -0.15043395722184966
                  CHANNELS 3 Yrotation Xrotation Zrotation
                  JOINT rightRingIntermediate
                  {
                    OFFSET -0.37808807487521556 0.0000013754022405443322 2.2046919317952884e-7
                    CHANNELS 3 Yrotation Xrotation Zrotation
                    JOINT rightRingDistal
                    {
                      OFFSET -0.21812105442344254 -0.002713483731960231 -0.004991354517454624
                      CHANNELS 3 Yrotation Xrotation Zrotation
                      End Site
                      {
                        OFFSET -0.21812105442344254 -0.002713483731960231 -0.004991354517454624
                      }
                    }
                  }
                }
                JOINT rightThumbProximal
                {
                  OFFSET -0.10793587079521427 -0.1652791240518252 -0.07775251827190094
                  CHANNELS 3 Yrotation Xrotation Zrotation
                  JOINT rightThumbIntermediate
                  {
                    OFFSET -0.40355819082296684 -0.017484006740276614 0.3177776014416309
                    CHANNELS 3 Yrotation Xrotation Zrotation
                    JOINT rightThumbDistal
                    {
                      OFFSET -0.2318764658022603 -0.018510186824293617 0.21396001800186287
                      CHANNELS 3 Yrotation Xrotation Zrotation
                      End Site
                      {
                        OFFSET -0.2318764658022603 -0.018510186824293617 0.21396001800186287
                      }
                    }
                  }
                }
              }
            }
          }
        }
      }
    }
  }
  JOINT leftUpperLeg
  {
    OFFSET 0.8486251390888677 -0.4421577294694363 0
    CHANNELS 3 Yrotation Xrotation Zrotation
    JOINT leftLowerLeg
    {
      OFFSET 0 -4.10147812638609 0
      CHANNELS 3 Yrotation Xrotation Zrotation
      JOINT leftFoot
      {
        OFFSET -0.0002543926476658853 -4.77292286812444 0.007402811231737388
        CHANNELS 3 Yrotation Xrotation Zrotation
        JOINT leftToes
        {
          OFFSET 0 -0.7027875951174846 1.2062924140498823
          CHANNELS 3 Yrotation Xrotation Zrotation
          End Site
          {
            OFFSET 0 -0.7027875951174846 1.2062924140498823
          }
        }
      }
    }
  }
  JOINT rightUpperLeg
  {
    OFFSET -0.8486251390888677 -0.4421577294694363 0
    CHANNELS 3 Yrotation Xrotation Zrotation
    JOINT rightLowerLeg
    {
      OFFSET 0 -4.10147812638609 0
      CHANNELS 3 Yrotation Xrotation Zrotation
      JOINT rightFoot
      {
        OFFSET 0.0002543926476658853 -4.77292286812444 0.007402811231737388
        CHANNELS 3 Yrotation Xrotation Zrotation
        JOINT rightToes
        {
          OFFSET 0 -0.7027875951174846 1.2062924140498823
          CHANNELS 3 Yrotation Xrotation Zrotation
          End Site
          {
            OFFSET 0 -0.7027875951174846 1.2062924140498823
          }
        }
      }
    }
  }
}
MOTION
Frames: 4
Frame Time: 0.03333333333333333
0.01215369999408722 -0.16932341661778239 -0.008268564008176327 -2.899031565633637 -6.09739738711765 -2.4488784727547848 4.630891691947833 7.8916957185610865 1.5876905866805509 2.9011934309751015 30.983562634851367 0.6159492883195479 0 0 0 -0.8204939841078555 2.6994372558002606 -0.039619590895575776 -5.212041006977544 19.003889131316292 2.693562134185406 0 0 0 0 0 0 -16.63072352006298 0.8499047762772289 -19.138247503401242 -16.904684704981733 -22.078195045415896 -41.6574917517301 -4.968365077626019 -0.7034265701160729 0.09470633089796528 -1.6006879677197292 -4.941636895158113 -6.441056879897006 3.4682487758829663 0.14922322017876313 -14.890183817225848 2.130709904466217 0.46385986225632453 -24.56211623536834 1.29987291336051 0.1675571722304146 -14.69241741000529 4.848314279035185 0.7520493809258091 -23.68000432604996 2.4497484696467393 0.6232799145149054 -28.547290930059916 1.2732104046899941 0.160655357821982 -14.384437717336402 7.00759916351225 1.7340377877279352 -16.245795699563065 1.9786788228822136 0.3973208913020716 -22.70784676385267 1.879017141645428 0.3568406308716877 -21.5056680945853 8.123218328980535 2.312194500613742 -17.07082401896686 3.2265888979924946 1.142705676172446 -38.99730484908219 1.7607176818276158 0.31190671803634346 -20.091656135213434 3.902274626290832 1.3237581606612363 10.495190646690324 5.310799404050882 13.189776380426073 11.940181122166779 -27.082148477292048 -4.89951226838037 16.98643995683377 14.787234688788482 -1.161627631818626 21.771872470348168 9.126361819359254 -21.677813333017163 43.789705574933734 4.417272090605948 -0.6258365848712711 -0.08124902855435871 1.432016721947787 -2.9793797081743523 1.6153443014597553 2.926454739550882 -2.223731449921837 14.271393243265294 -1.9518802933991362 0.519950858171059 29.829962106208857 -1.6363646077166716 0.35752523723673313 24.64827225117374 -12.825789794938052 -11.362718033098506 15.59668424791449 -2.428924575532589 0.8421190059877561 38.238306134131676 -1.2497227720564845 0.2043529297359027 18.573702062533968 0.8331864145916887 -1.8459617418666607 17.80679721298988 -2.4708298811721114 0.8756087318688762 39.02132104755947 -1.4368421847021544 0.27257322726591265 21.48151539903197 -2.2589068353288395 -0.2846767590944009 15.801370868280525 -2.8648817751848585 1.2423721590328756 46.88141146258028 -1.338729160708291 0.2354791451984374 19.950116399493208 1.3565105475623938 -5.290596798327637 -14.260761318659606 -20.18641905711392 17.417326219938758 1.7449902895422895 13.018167394581381 -20.334599941964047 -14.556425396125395 9.272903194909514 -5.779059997975659 6.806777917386823 -10.574939317050122 20.185652539079882 -0.2801405834348355 -4.8611787590012385 -10.810244933831104 -4.11539645650712 0.0000063864332794353475 0.0785663699629909 -0.0000014792022810465481 -5.160151587188432 -6.162310407193157 -0.5835746387024303 10.474660086200853 17.867876332337286 0.6505968387338341 11.656583661265254 -6.826762014652027 -1.8635902462307492 0.0029671204792611444 0.5152649971054956 0.29834431171155434
0.011545035056769848 -0.16931292620030192 -0.007159048691391945 -2.8890344717596097 -6.098195914653628 -2.449394728498262 4.63222738662415 7.900660819716424 1.587984504771686 2.9023814847003444 30.983490932294192 0.6164209601407211 0 0 0 -0.8210470216497593 2.6995462328728004 -0.03866690548041194 -5.215806730129836 19.007567952326916 2.696538055801871 0 0 0 0 0 0 -16.533866784517556 0.8805582654072794 -19.1366145749614 -16.895637785834243 -22.077142886568414 -41.68186034736389 -4.968847402184151 -0.7034680879887083 0.09472474175422287 -1.5995918977172214 -4.944295615779739 -6.453328431720069 3.463314605622568 0.14918964274822796 -14.805133596903946 2.133815599654658 0.4652730108147647 -24.6002179864941 1.295095876151882 0.1663157533991081 -14.637174029010422 4.850207686834993 0.7530284235787474 -23.733434796974358 2.441138664054993 0.6186132872377197 -28.43788163974169 1.2731077941681435 0.1606195392087037 -14.383279758045669 7.000845794261358 1.7329816132441733 -16.284274239350754 1.9793326247552558 0.3975944256153634 -22.715661226952506 1.8792969435235147 0.3569502628708302 -21.509128867160687 8.136723975115704 2.3252091963707384 -17.155589010763684 3.226796825454103 1.1428705940105652 -39.00041069496928 1.7603458270726142 0.3117753416706851 -20.087286347921097 3.902274626290832 1.3237581606612363 10.495190646690324 5.264870685086492 13.167944130006363 11.947381371292352 -27.07782240325644 -4.903363637906476 16.976568606347012 14.784462593509282 -1.1622362841377831 21.77696238614848 9.127887249171971 -21.6619694111049 43.800086120848455 4.426155579979903 -0.6270650784946389 -0.08146998154078641 1.4606026370645826 -3.0214156758587363 1.6255129146241698 2.92630833880142 -2.2255259404886756 14.283739389564557 -1.9444898898359062 0.5157237589254484 29.705762834511354 -1.6366336278703169 0.3576561072772486 24.6525770427156 -12.823612481051596 -11.36501967918118 15.58892819684884 -2.4285946242464345 0.8418454487185217 38.23214142464001 -1.2496285586056142 0.20432636920246205 18.572290563368572 0.8334081266884402 -1.847042753744773 17.81630641457117 -2.469736995439208 0.8747182488003062 39.00063278474563 -1.4376153428460205 0.2728797087965156 21.49397329043975 -2.2482443245025636 -0.29066448255080823 15.840076058457006 -2.8634363497801134 1.240827640041372 46.8505010125637 -1.3392800182047513 0.23566927152430928 19.958760195508784 1.3565105475623938 -5.290596798327637 -14.260761318659606 -20.198405138430232 17.424869542882988 1.7468437561702939 13.006657285300466 -20.327869540918098 -14.540483413858082 9.27308637110645 -5.778054264587131 6.816374686264303 -10.572214687943438 20.184812029825412 -0.27921890715473435 -4.8764439339277414 -10.818378136140739 -4.112527263023374 -0.000015690183365765982 0.0734853250657374 6.024864113986109e-7 -5.160534141556854 -6.1604147517428585 -0.5837676040810734 10.4554130304266 17.87382560785424 0.6460978641940995 11.65750417119403 -6.838264204578615 -1.8655137946591462 0.00287259501054571 0.5235599623777579 0.28532331866446264
0.010436774231493473 -0.16967341509190348 -0.004205713048577309 -2.8765630145105985 -6.090511209724061 -2.446118235447385 4.6393191739266975 7.907164324688919 1.5822934524855625 2.9014841020666013 30.982447267839504 0.6157962716882822 0 0 0 -0.8205651324238944 2.6993650317850206 -0.039444667703015676 -5.202099894885894 19.021487527087235 2.689287353630347 0 0 0 0 0 0 -16.335767792276947 0.9370735064545831 -19.131783708587736 -16.90675526282469 -22.05264140951073 -41.73599354887546 -4.967148013819628 -0.7032227696643671 0.09467961514455672 -1.5968564487288908 -4.985828320660953 -6.501411559577068 3.437259914832346 0.14368149073741623 -14.491011328347236 2.130423697748652 0.46370911290823547 -24.558463750726325 1.2946270406291236 0.16618788691708158 -14.631890103781323 4.856014867138608 0.7565940917373327 -23.64430421415446 2.4347441328794472 0.6151540761749713 -28.356702227002902 1.272698570784884 0.16052742467465797 -14.378461543600256 6.995420566912663 1.7256526839473134 -16.193114649328056 1.979741606675499 0.39775931462248604 -22.72067445173171 1.8797991608176874 0.3571375097392657 -21.51508546578975 8.168633590059525 2.3344459114217173 -17.076006149756537 3.2271325996548237 1.1431501537849718 -39.005235900826264 1.759405947888867 0.3114342540547421 -20.07608083536085 3.902274626290832 1.3237581606612363 10.495190646690324 5.301821157124975 13.196420793315294 11.93069148386674 -27.02788011525981 -4.82451972126089 16.7530319076264 14.780924172470417 -1.1599273128372354 21.780004494932204 9.12516479692343 -21.64866428643641 43.81761292206978 4.426615777822377 -0.627143043370516 -0.08138710725526094 1.4956074111608548 -3.1226605765502295 1.642365670374694 2.9206055101000006 -2.2275716324945614 14.318388480871972 -1.958729647653686 0.5238844099173547 29.945295128789276 -1.6375666868927847 0.35808817853129915 24.667455079953154 -12.829700831561354 -11.358266320863995 15.61066055073629 -2.428299726237593 0.841613837623795 38.226839770097826 -1.2485579730186085 0.2039729446900934 18.555586316797203 0.836299531713132 -1.849787783702715 17.829537604601338 -2.470042280914108 0.8749624031625096 39.00643375457232 -1.4390840961313687 0.2734586539499385 21.516985867987394 -2.227528195590805 -0.30153442021694044 15.890839121316573 -2.8621458141486547 1.2394591472244514 46.82306634403102 -1.3402702654394787 0.23602529815105394 19.97428211799763 1.3565105475623938 -5.290596798327637 -14.260761318659606 -20.298756270582324 17.488254730001106 1.762322723430146 12.914245849872577 -20.30313382652005 -14.422700642757702 9.272374074121977 -5.7843491380883085 6.815270210893955 -10.580380548477082 20.192036554972958 -0.2815519356172836 -4.885762706181979 -10.84095008051646 -4.109552672845915 -0.0000016916832897995683 0.05230886761781985 -4.514798061349999e-9 -5.1586786464110945 -6.173226766479609 -0.5906119144980301 10.444089609650359 17.90909297281836 0.6487896551297708 11.66330864574314 -6.870092401813178 -1.8799790286182045 0.0027531830571690496 0.5197592848238233 0.2698504038795257
0.009715618565678596 -0.17020270433750895 -0.0002213381667388603 -2.858181305871211 -6.076772175785756 -2.4453639995903913 4.639581900966146 7.895670127919459 1.5967943650689527 2.897454025867811 30.984215927298642 0.6148526465029747 0 0 0 -0.8188386430641735 2.698543430493659 -0.047122398159370305 -5.172080262359326 19.029051942118453 2.6575899307528132 0 0 0 0 0 0 -16.132971123642378 0.9907393889097172 -19.12585254274704 -16.945198511074835 -22.007343829367304 -41.79449434740689 -4.9606874215903565 -0.7023179149775645 0.09450560334750997 -1.5678888751015363 -4.9262953641246305 -6.6609502839477805 3.422157469677835 0.13794017913095197 -14.391770304065611 2.1279890900137977 0.4626146460559988 -24.52857856062989 1.3004638850947838 0.16772016365321937 -14.699329106730247 4.86308284828673 0.7619990068835655 -23.48612658314437 2.43725398567221 0.6165009285373698 -28.38842195584512 1.2740425535914686 0.16087136340476696 -14.394062589412961 7.006215446243177 1.7214784035840134 -16.02271634360136 1.979909086418385 0.39784103873840215 -22.722739326511743 1.8808037981091161 0.35753889788103815 -21.527170201196263 8.205783448796872 2.3357959948819236 -16.865066052862648 3.22737974631382 1.1433476282506505 -39.008693837168394 1.760562049552329 0.31185042150252384 -20.0897226775851 3.902274626290832 1.3237581606612363 10.495190646690324 5.617641476797657 13.382578461361149 11.841336912735645 -26.944778974484233 -4.642795625814726 16.363216092871006 14.738955498852622 -1.1461039462387448 21.757461149598132 9.118500188582756 -21.663650551857828 43.846374360285736 4.416794178219295 -0.6257536571595335 -0.08121680520805934 1.5098461328590647 -3.2016231765512657 1.6630996707004728 2.9116354932628536 -2.227935401559476 14.363845709241431 -1.983964632400319 0.5385442268131064 30.37134212448276 -1.6388943107119194 0.3586971444978591 24.68873572579806 -12.840960140453435 -11.350728525226623 15.653526427813368 -2.4287326206301825 0.8419416687234403 38.234697581055855 -1.2484160982307158 0.2039310161342966 18.553410201833255 0.8321278257871603 -1.8511701237977742 17.86236050144054 -2.4708219901866495 0.8755958704015003 39.02090818262718 -1.4405229974855769 0.2740297283154581 21.53956684370029 -2.2245634699693215 -0.30338582748506004 15.907006381858018 -2.8631692187586655 1.2405302436482764 46.844596943327616 -1.341842391296272 0.23660312106130107 19.998729982831914 1.3565105475623938 -5.290596798327637 -14.260761318659606 -20.420636149004682 17.565411455757143 1.7810448286398757 12.765540151415887 -20.263899814638503 -14.241304144755627 9.272337640776634 -5.780254952297841 6.80599426850908 -10.569750530378236 20.198468137877686 -0.27575072036217063 -4.882948843660873 -10.853571535808596 -4.120798681404072 -0.0000013089905706121306 0.046923208075097 2.0983140698603157e-7 -5.160858750222488 -6.185875924050437 -0.5920810307838439 10.414688866870284 17.959353242663134 0.6482797402497814 11.67402131987794 -6.91118293296447 -1.911160932459659 0.0026915217140127323 0.4971537767870595 0.2627109858546086
